<mxfile host="app.diagrams.net" agent="Mozilla/5.0 (Windows NT 10.0; Win64; x64) AppleWebKit/537.36 (KHTML, like Gecko) Chrome/128.0.0.0 Safari/537.36 Edg/128.0.0.0" version="24.7.13">
  <diagram name="Page-1" id="-94ANbY5htkI7qeZ00oK">
    <mxGraphModel dx="1650" dy="734" grid="1" gridSize="10" guides="1" tooltips="1" connect="1" arrows="1" fold="1" page="1" pageScale="1" pageWidth="827" pageHeight="1169" math="0" shadow="0">
      <root>
        <mxCell id="0" />
        <mxCell id="1" parent="0" />
        <mxCell id="lANeDLZupoDU989c10M4-1" value="AWS&lt;div&gt;Organization&lt;/div&gt;" style="sketch=0;points=[[0,0,0],[0.25,0,0],[0.5,0,0],[0.75,0,0],[1,0,0],[0,1,0],[0.25,1,0],[0.5,1,0],[0.75,1,0],[1,1,0],[0,0.25,0],[0,0.5,0],[0,0.75,0],[1,0.25,0],[1,0.5,0],[1,0.75,0]];points=[[0,0,0],[0.25,0,0],[0.5,0,0],[0.75,0,0],[1,0,0],[0,1,0],[0.25,1,0],[0.5,1,0],[0.75,1,0],[1,1,0],[0,0.25,0],[0,0.5,0],[0,0.75,0],[1,0.25,0],[1,0.5,0],[1,0.75,0]];outlineConnect=0;fontColor=#232F3E;fillColor=#E7157B;strokeColor=#ffffff;dashed=0;verticalLabelPosition=bottom;verticalAlign=top;align=center;html=1;fontSize=12;fontStyle=0;aspect=fixed;shape=mxgraph.aws4.resourceIcon;resIcon=mxgraph.aws4.organizations;" vertex="1" parent="1">
          <mxGeometry x="80" y="80" width="78" height="78" as="geometry" />
        </mxCell>
        <mxCell id="lANeDLZupoDU989c10M4-2" value="IT" style="sketch=0;outlineConnect=0;fontColor=#232F3E;gradientColor=none;fillColor=#E7157B;strokeColor=none;dashed=0;verticalLabelPosition=bottom;verticalAlign=top;align=center;html=1;fontSize=12;fontStyle=0;aspect=fixed;pointerEvents=1;shape=mxgraph.aws4.organizations_account;" vertex="1" parent="1">
          <mxGeometry x="82" y="440" width="74" height="78" as="geometry" />
        </mxCell>
        <mxCell id="lANeDLZupoDU989c10M4-3" value="Devops" style="sketch=0;outlineConnect=0;fontColor=#232F3E;gradientColor=none;fillColor=#E7157B;strokeColor=none;dashed=0;verticalLabelPosition=bottom;verticalAlign=top;align=center;html=1;fontSize=12;fontStyle=0;aspect=fixed;pointerEvents=1;shape=mxgraph.aws4.organizations_account;" vertex="1" parent="1">
          <mxGeometry x="285" y="440" width="74" height="78" as="geometry" />
        </mxCell>
        <mxCell id="lANeDLZupoDU989c10M4-4" value="RandD" style="sketch=0;outlineConnect=0;fontColor=#232F3E;gradientColor=none;fillColor=#E7157B;strokeColor=none;dashed=0;verticalLabelPosition=bottom;verticalAlign=top;align=center;html=1;fontSize=12;fontStyle=0;aspect=fixed;pointerEvents=1;shape=mxgraph.aws4.organizations_account;" vertex="1" parent="1">
          <mxGeometry x="685" y="440" width="74" height="78" as="geometry" />
        </mxCell>
        <mxCell id="lANeDLZupoDU989c10M4-5" value="Management" style="sketch=0;outlineConnect=0;fontColor=#232F3E;gradientColor=none;fillColor=#E7157B;strokeColor=none;dashed=0;verticalLabelPosition=bottom;verticalAlign=top;align=center;html=1;fontSize=12;fontStyle=0;aspect=fixed;pointerEvents=1;shape=mxgraph.aws4.organizations_account;" vertex="1" parent="1">
          <mxGeometry x="486" y="440" width="74" height="78" as="geometry" />
        </mxCell>
        <mxCell id="lANeDLZupoDU989c10M4-6" value="Management&lt;div&gt;OU&lt;/div&gt;" style="sketch=0;outlineConnect=0;fontColor=#232F3E;gradientColor=none;fillColor=#DD344C;strokeColor=none;dashed=0;verticalLabelPosition=bottom;verticalAlign=top;align=center;html=1;fontSize=12;fontStyle=0;aspect=fixed;pointerEvents=1;shape=mxgraph.aws4.organizations_organizational_unit;" vertex="1" parent="1">
          <mxGeometry x="80" y="320" width="78" height="67" as="geometry" />
        </mxCell>
        <mxCell id="lANeDLZupoDU989c10M4-7" value="Devops&lt;div&gt;OU&lt;/div&gt;" style="sketch=0;outlineConnect=0;fontColor=#232F3E;gradientColor=none;fillColor=#DD344C;strokeColor=none;dashed=0;verticalLabelPosition=bottom;verticalAlign=top;align=center;html=1;fontSize=12;fontStyle=0;aspect=fixed;pointerEvents=1;shape=mxgraph.aws4.organizations_organizational_unit;" vertex="1" parent="1">
          <mxGeometry x="283" y="320" width="78" height="67" as="geometry" />
        </mxCell>
        <mxCell id="lANeDLZupoDU989c10M4-8" value="IT&lt;div&gt;OU&lt;/div&gt;" style="sketch=0;outlineConnect=0;fontColor=#232F3E;gradientColor=none;fillColor=#DD344C;strokeColor=none;dashed=0;verticalLabelPosition=bottom;verticalAlign=top;align=center;html=1;fontSize=12;fontStyle=0;aspect=fixed;pointerEvents=1;shape=mxgraph.aws4.organizations_organizational_unit;" vertex="1" parent="1">
          <mxGeometry x="484" y="320" width="78" height="67" as="geometry" />
        </mxCell>
        <mxCell id="lANeDLZupoDU989c10M4-9" value="RandD&lt;div&gt;OU&lt;/div&gt;" style="sketch=0;outlineConnect=0;fontColor=#232F3E;gradientColor=none;fillColor=#DD344C;strokeColor=none;dashed=0;verticalLabelPosition=bottom;verticalAlign=top;align=center;html=1;fontSize=12;fontStyle=0;aspect=fixed;pointerEvents=1;shape=mxgraph.aws4.organizations_organizational_unit;" vertex="1" parent="1">
          <mxGeometry x="683" y="320" width="78" height="67" as="geometry" />
        </mxCell>
        <mxCell id="lANeDLZupoDU989c10M4-10" value="Root" style="sketch=0;outlineConnect=0;fontColor=#232F3E;gradientColor=none;fillColor=#DD344C;strokeColor=none;dashed=0;verticalLabelPosition=bottom;verticalAlign=top;align=center;html=1;fontSize=12;fontStyle=0;aspect=fixed;pointerEvents=1;shape=mxgraph.aws4.organizations_organizational_unit;" vertex="1" parent="1">
          <mxGeometry x="380" y="85.5" width="78" height="67" as="geometry" />
        </mxCell>
        <mxCell id="lANeDLZupoDU989c10M4-11" value="Master" style="sketch=0;outlineConnect=0;fontColor=#232F3E;gradientColor=none;fillColor=#E7157B;strokeColor=none;dashed=0;verticalLabelPosition=bottom;verticalAlign=top;align=center;html=1;fontSize=12;fontStyle=0;aspect=fixed;pointerEvents=1;shape=mxgraph.aws4.organizations_account;" vertex="1" parent="1">
          <mxGeometry x="600" y="80" width="74" height="78" as="geometry" />
        </mxCell>
        <mxCell id="lANeDLZupoDU989c10M4-15" value="" style="endArrow=classic;startArrow=classic;html=1;rounded=0;exitX=1;exitY=0.5;exitDx=0;exitDy=0;exitPerimeter=0;" edge="1" parent="1" source="lANeDLZupoDU989c10M4-1" target="lANeDLZupoDU989c10M4-10">
          <mxGeometry width="50" height="50" relative="1" as="geometry">
            <mxPoint x="390" y="400" as="sourcePoint" />
            <mxPoint x="370" y="130" as="targetPoint" />
          </mxGeometry>
        </mxCell>
        <mxCell id="lANeDLZupoDU989c10M4-17" value="" style="endArrow=none;html=1;rounded=0;" edge="1" parent="1">
          <mxGeometry width="50" height="50" relative="1" as="geometry">
            <mxPoint x="120" y="240" as="sourcePoint" />
            <mxPoint x="720" y="240" as="targetPoint" />
          </mxGeometry>
        </mxCell>
        <mxCell id="lANeDLZupoDU989c10M4-18" value="" style="endArrow=none;html=1;rounded=0;" edge="1" parent="1" source="lANeDLZupoDU989c10M4-6">
          <mxGeometry width="50" height="50" relative="1" as="geometry">
            <mxPoint x="390" y="400" as="sourcePoint" />
            <mxPoint x="120" y="240" as="targetPoint" />
          </mxGeometry>
        </mxCell>
        <mxCell id="lANeDLZupoDU989c10M4-19" value="" style="endArrow=none;html=1;rounded=0;exitX=0.474;exitY=-0.001;exitDx=0;exitDy=0;exitPerimeter=0;" edge="1" parent="1" source="lANeDLZupoDU989c10M4-7">
          <mxGeometry width="50" height="50" relative="1" as="geometry">
            <mxPoint x="129" y="330" as="sourcePoint" />
            <mxPoint x="320" y="240" as="targetPoint" />
          </mxGeometry>
        </mxCell>
        <mxCell id="lANeDLZupoDU989c10M4-20" value="" style="endArrow=none;html=1;rounded=0;exitX=0.474;exitY=-0.001;exitDx=0;exitDy=0;exitPerimeter=0;" edge="1" parent="1">
          <mxGeometry width="50" height="50" relative="1" as="geometry">
            <mxPoint x="721.5" y="320" as="sourcePoint" />
            <mxPoint x="721.5" y="240" as="targetPoint" />
          </mxGeometry>
        </mxCell>
        <mxCell id="lANeDLZupoDU989c10M4-21" value="" style="endArrow=none;html=1;rounded=0;exitX=0.474;exitY=-0.001;exitDx=0;exitDy=0;exitPerimeter=0;" edge="1" parent="1">
          <mxGeometry width="50" height="50" relative="1" as="geometry">
            <mxPoint x="521.5" y="320" as="sourcePoint" />
            <mxPoint x="521.5" y="240" as="targetPoint" />
          </mxGeometry>
        </mxCell>
        <mxCell id="lANeDLZupoDU989c10M4-22" value="" style="endArrow=none;html=1;rounded=0;" edge="1" parent="1" target="lANeDLZupoDU989c10M4-10">
          <mxGeometry width="50" height="50" relative="1" as="geometry">
            <mxPoint x="419" y="240" as="sourcePoint" />
            <mxPoint x="350" y="270" as="targetPoint" />
          </mxGeometry>
        </mxCell>
        <mxCell id="lANeDLZupoDU989c10M4-23" value="" style="endArrow=classic;html=1;rounded=0;" edge="1" parent="1" source="lANeDLZupoDU989c10M4-10" target="lANeDLZupoDU989c10M4-11">
          <mxGeometry width="50" height="50" relative="1" as="geometry">
            <mxPoint x="480" y="110" as="sourcePoint" />
            <mxPoint x="440" y="350" as="targetPoint" />
          </mxGeometry>
        </mxCell>
        <mxCell id="lANeDLZupoDU989c10M4-24" value="" style="rounded=1;arcSize=10;dashed=1;strokeColor=#ff0000;fillColor=none;gradientColor=none;dashPattern=8 4;strokeWidth=2;" vertex="1" parent="1">
          <mxGeometry x="40" y="320" width="170" height="360" as="geometry" />
        </mxCell>
        <mxCell id="lANeDLZupoDU989c10M4-25" value="" style="rounded=1;arcSize=10;dashed=1;strokeColor=#ff0000;fillColor=none;gradientColor=none;dashPattern=8 4;strokeWidth=2;" vertex="1" parent="1">
          <mxGeometry x="242.5" y="320" width="167.5" height="360" as="geometry" />
        </mxCell>
        <mxCell id="lANeDLZupoDU989c10M4-26" value="" style="rounded=1;arcSize=10;dashed=1;strokeColor=#ff0000;fillColor=none;gradientColor=none;dashPattern=8 4;strokeWidth=2;" vertex="1" parent="1">
          <mxGeometry x="440" y="320" width="167.5" height="360" as="geometry" />
        </mxCell>
        <mxCell id="lANeDLZupoDU989c10M4-27" value="" style="rounded=1;arcSize=10;dashed=1;strokeColor=#ff0000;fillColor=none;gradientColor=none;dashPattern=8 4;strokeWidth=2;" vertex="1" parent="1">
          <mxGeometry x="639" y="321" width="167.5" height="360" as="geometry" />
        </mxCell>
        <mxCell id="lANeDLZupoDU989c10M4-28" value="Text" style="text;strokeColor=none;align=center;fillColor=none;html=1;verticalAlign=middle;whiteSpace=wrap;rounded=0;" vertex="1" parent="1">
          <mxGeometry x="380" y="620" width="60" height="30" as="geometry" />
        </mxCell>
      </root>
    </mxGraphModel>
  </diagram>
</mxfile>
